<?xml version="1.0" encoding="utf-8"?>
<!-- Generator: Adobe Illustrator 27.8.0, SVG Export Plug-In . SVG Version: 6.00 Build 0)  -->
<svg version="1.1" id="Layer_1" xmlns="http://www.w3.org/2000/svg" xmlns:xlink="http://www.w3.org/1999/xlink" x="0px" y="0px"
	 viewBox="0 0 489.7 181.1" style="enable-background:new 0 0 489.7 181.1;" xml:space="preserve">
<style type="text/css">
	.st0{fill:#FFFFFF;}
	.st1{fill:url(#SVGID_1_);}
	.st2{fill:url(#SVGID_00000183236913361217435280000017344231781303555746_);}
	.st3{fill:url(#SVGID_00000029019754770513053740000004251121451093406085_);}
	.st4{fill:url(#SVGID_00000169518901027421885510000004163534996233662632_);}
	.st5{fill:url(#SVGID_00000178179428951723975110000000040331050594722960_);}
	.st6{fill:url(#SVGID_00000057126616822814365770000002796760653941755295_);}
	.st7{fill:url(#SVGID_00000170265629684967465190000016204655334085143231_);}
	.st8{fill:url(#SVGID_00000019675296059376623810000006315969790472158629_);}
	.st9{fill-rule:evenodd;clip-rule:evenodd;fill:url(#SVGID_00000110452132419878376460000002218532638576773549_);}
	.st10{fill-rule:evenodd;clip-rule:evenodd;fill:url(#SVGID_00000112628982310194155390000009976475304648829860_);}
	.st11{fill-rule:evenodd;clip-rule:evenodd;fill:url(#SVGID_00000175283518687389391050000011245743470301496725_);}
</style>
<g>
	<path class="st0" d="M200.6,181c0,0-4.1-1-6.4-3.3l-15.4-20.8l1.2-0.4c1.9-0.6,3.8-1.4,5.6-2.4c1.8-1,3.5-2.2,4.9-3.8
		c1.4-1.5,2.6-3.4,3.5-5.5c0.9-2.1,1.4-4.7,1.4-7.5c0.1-5.7-1.4-10.1-4.3-12.9c-3-2.9-6.5-4.9-10.5-6.1c-4.1-1.2-8.3-1.8-12.4-1.8
		c-4.3,0-10.5,0-12.8,0h-10.5v40.2l11.6,24.2v-54.1l15.3,0c2.1,0.1,3.8,0.5,5.2,1.1c1.4,0.6,2.6,1.7,3.7,3.1
		c1.1,1.5,1.7,3.7,1.7,6.4c0,2.8-0.6,5-1.8,6.5c-1.2,1.5-2.5,2.5-3.9,3.1c-1.4,0.6-3.2,1-5.5,1l-12.5,0l24,32.8h1.5l0,0H200.6z"/>
	<path class="st0" d="M311,181c0,0-4.5-1.1-6.7-3.7l-15.2-20.5l1.2-0.4c1.9-0.6,3.8-1.4,5.6-2.4c1.8-1,3.5-2.2,4.9-3.8
		c1.4-1.5,2.6-3.4,3.5-5.5c0.9-2.1,1.4-4.7,1.4-7.5c0.1-5.7-1.4-10.1-4.3-12.9c-3-2.9-6.5-4.9-10.5-6.1c-4.1-1.2-8.3-1.8-12.4-1.8
		c-4.3,0-10.5,0-12.8,0h-10.5v64.4h1.9l0,0h16.4c0,0-4.4-1.1-6.6-3.6v-50.5l15.3,0c2.1,0.1,3.8,0.5,5.2,1.1c1.4,0.6,2.6,1.7,3.7,3.1
		c1.1,1.5,1.7,3.7,1.7,6.4c0,2.8-0.6,5-1.8,6.5c-1.2,1.5-2.5,2.5-3.9,3.1c-1.4,0.6-3.2,1-5.5,1l-12.5,0l24,32.8h1.6l0,0H311z"/>
	<path class="st0" d="M248.3,127v-10.4h-45.4v64.3h2.2h9.9h6.5c0,0-4.2-1.1-6.5-3.5v-21.2h29.7l0.4,0.6l-6.7-14c0,0,0.2,1.9-1,2.9
		H215V127H248.3z"/>
	<path class="st0" d="M148.3,180.9l-33.5-63.5l-32.4,63.5h5.1l0,0h16.4c0,0-4.5-1.1-6.7-3.7l17.6-36.3l17.5,36.3
		c-2.2,2.5-6.7,3.6-6.7,3.6H142l0,0H148.3z"/>
	<path class="st0" d="M359.3,180.9l-33.5-63.5l-22,43.1l7.7,10.4l14.3-29.9l17.5,36.4c-2.2,2.4-6.5,3.5-6.5,3.5h16.4l0,0H359.3z"/>
	<path class="st0" d="M402.1,117.4l-19.4,36.3l-19.5-36.3L349.5,142l6,14.3l6.7-14.4l20.2,38l20.3-38.1l17,35.5
		c-2.2,2.5-6.6,3.6-6.6,3.6h8.3h8.1h6.1L402.1,117.4z"/>
	<path class="st0" d="M98.7,116.6h-8.1h-8.3c0,0,4.4,1.1,6.6,3.6l-16.5,35.2l-20.1-37.9l-20.2,38l-16.9-35.4
		c2.2-2.5,6.6-3.6,6.6-3.6h-8.4h-8H0.4l33.3,63.3L52,143.7l19.4,36.1l32.5-63.2H98.7z"/>
	<path class="st0" d="M489.6,126.7v-10.3h-38.6h-10.4h-6c0,0,3.6,0.9,6,3v61.5h49v-10h-36.4v-17.1h23.1c1.1,1,0.9,2.8,0.9,2.8
		l6.6-13.5l-0.4,0.5H453v-16.9H489.6z"/>
</g>
<g>
	<g>
		<g>
			<linearGradient id="SVGID_1_" gradientUnits="userSpaceOnUse" x1="173.0091" y1="106.3604" x2="173.0091" y2="-44.3107">
				<stop  offset="0.287" style="stop-color:#076286"/>
				<stop  offset="1" style="stop-color:#003147"/>
			</linearGradient>
			<path class="st1" d="M186,103.7c-7.2-8.1-13.9-29.6-13.9-29.6l0,0c0,0,7.8-5.1,16.2-8.9c-1.2-3.4-1.8-6.6-2.3-9.2
				c-2.6,1.7-6.7,3.7-9.1,4.9c-15.1,7.5-23.1,3.9-23.1,3.9s0.7,0.3,1.8,0.9c2.7,1.7,7.9,6.5,11.9,16.1l11.1,23.6
				c0,0,0.1,0.1,0.1,0.1l13.3,2.7C189.7,106.9,187.6,105.5,186,103.7z"/>
			
				<linearGradient id="SVGID_00000040533743527786118980000010921737140476372376_" gradientUnits="userSpaceOnUse" x1="154.7513" y1="106.3605" x2="154.7513" y2="-44.3104">
				<stop  offset="0.287" style="stop-color:#076286"/>
				<stop  offset="1" style="stop-color:#003147"/>
			</linearGradient>
			<path style="fill:url(#SVGID_00000040533743527786118980000010921737140476372376_);" d="M155.6,65.6c-1.1-0.5-1.8-0.9-1.8-0.9
				S154.6,64.9,155.6,65.6z"/>
		</g>
		<g>
			
				<linearGradient id="SVGID_00000015329939895332428770000014575526587320272563_" gradientUnits="userSpaceOnUse" x1="189.7981" y1="106.3604" x2="189.7981" y2="-44.3101">
				<stop  offset="0.287" style="stop-color:#076286"/>
				<stop  offset="1" style="stop-color:#003147"/>
			</linearGradient>
			<path style="fill:url(#SVGID_00000015329939895332428770000014575526587320272563_);" d="M198.1,98.2c-4.2-4.7-9.2-16.9-9.2-16.9
				s2.3-1.4,5.7-3c-1.1-1.4-2.2-2.9-3.1-4.3c-8.5,4.1-12.9,2.3-12.9,2.3s0.3,0.2,0.9,0.4c1.3,0.8,3.8,3,6.8,9.4l6,12.5
				c0.1,0.1,0.2,0.2,0.3,0.3l8.6,2C200,100,199,99.1,198.1,98.2z"/>
			
				<linearGradient id="SVGID_00000135658491381848627050000015476764932473272473_" gradientUnits="userSpaceOnUse" x1="178.911" y1="106.3609" x2="178.911" y2="-44.3125">
				<stop  offset="0.287" style="stop-color:#076286"/>
				<stop  offset="1" style="stop-color:#003147"/>
			</linearGradient>
			<path style="fill:url(#SVGID_00000135658491381848627050000015476764932473272473_);" d="M179.3,76.6c-0.5-0.2-0.8-0.4-0.8-0.4
				S178.8,76.2,179.3,76.6z"/>
		</g>
	</g>
	<g>
		<g>
			
				<linearGradient id="SVGID_00000109731334758406660590000000317005663051177380_" gradientUnits="userSpaceOnUse" x1="317.0673" y1="106.3604" x2="317.0673" y2="-44.3107">
				<stop  offset="0.287" style="stop-color:#076286"/>
				<stop  offset="1" style="stop-color:#003147"/>
			</linearGradient>
			<path style="fill:url(#SVGID_00000109731334758406660590000000317005663051177380_);" d="M336.2,64.7c0,0-8,3.6-23.1-3.9
				c-2.4-1.2-6.5-3.1-9.1-4.9c-0.5,2.6-1.1,5.8-2.3,9.2c8.5,3.7,16.2,8.9,16.2,8.9l0,0c0,0-6.7,21.5-13.9,29.6
				c-1.6,1.8-3.7,3.2-6.1,4.4l13.3-2.7c0,0,0.1-0.1,0.1-0.1l11.1-23.6c3.9-9.5,9.1-14.4,11.9-16.1C335.5,65.1,336.2,64.7,336.2,64.7
				z"/>
			
				<linearGradient id="SVGID_00000028303295674541864280000000638001643294397603_" gradientUnits="userSpaceOnUse" x1="335.3254" y1="106.3605" x2="335.3254" y2="-44.3104">
				<stop  offset="0.287" style="stop-color:#076286"/>
				<stop  offset="1" style="stop-color:#003147"/>
			</linearGradient>
			<path style="fill:url(#SVGID_00000028303295674541864280000000638001643294397603_);" d="M334.4,65.6c1.1-0.5,1.8-0.9,1.8-0.9
				S335.5,64.9,334.4,65.6z"/>
		</g>
		<g>
			
				<linearGradient id="SVGID_00000132776446768149192970000010269575133007232149_" gradientUnits="userSpaceOnUse" x1="300.2781" y1="106.3604" x2="300.2781" y2="-44.3101">
				<stop  offset="0.287" style="stop-color:#076286"/>
				<stop  offset="1" style="stop-color:#003147"/>
			</linearGradient>
			<path style="fill:url(#SVGID_00000132776446768149192970000010269575133007232149_);" d="M311.6,76.2c0,0-4.4,1.9-12.9-2.3
				c-0.9,1.4-2,2.9-3.1,4.3c3.3,1.6,5.7,3,5.7,3s-5.1,12.2-9.2,16.9c-0.9,0.9-1.9,1.8-3,2.6l8.6-2c0.1-0.1,0.2-0.2,0.3-0.3l6-12.5
				c3-6.4,5.5-8.6,6.8-9.4C311.2,76.3,311.6,76.2,311.6,76.2z"/>
			
				<linearGradient id="SVGID_00000163756120025459725540000001848801536836928677_" gradientUnits="userSpaceOnUse" x1="311.1653" y1="106.3609" x2="311.1653" y2="-44.3125">
				<stop  offset="0.287" style="stop-color:#076286"/>
				<stop  offset="1" style="stop-color:#003147"/>
			</linearGradient>
			<path style="fill:url(#SVGID_00000163756120025459725540000001848801536836928677_);" d="M310.8,76.6c0.5-0.2,0.8-0.4,0.8-0.4
				S311.3,76.2,310.8,76.6z"/>
		</g>
	</g>
	
		<linearGradient id="SVGID_00000176028623859096483290000004545637941297383358_" gradientUnits="userSpaceOnUse" x1="244.9192" y1="106.3604" x2="244.9192" y2="-44.3107">
		<stop  offset="0.287" style="stop-color:#076286"/>
		<stop  offset="1" style="stop-color:#003147"/>
	</linearGradient>
	<path style="fill-rule:evenodd;clip-rule:evenodd;fill:url(#SVGID_00000176028623859096483290000004545637941297383358_);" d="
		M296.5,42.7c0,0-50.4-25.1-51.6-42.7c0,0,0,0.1,0,0.1c0,0,0-0.1,0-0.1c-1.1,17.6-51.6,42.7-51.6,42.7s-6.1,27.5,17,49.6l0.6-0.3
		c-12.5-13.4-15.9-28.3-6-38.4l40-23.7c0,0,0-0.1,0-0.2c0,0.1,0,0.2,0,0.2l40,23.7c9.8,10.2,6.4,25.1-6,38.4l0.6,0.3
		C302.6,70.1,296.5,42.7,296.5,42.7z"/>
	
		<linearGradient id="SVGID_00000143581578621548054070000012774170719355646134_" gradientUnits="userSpaceOnUse" x1="244.8797" y1="106.3605" x2="244.8797" y2="-44.3103">
		<stop  offset="0.287" style="stop-color:#076286"/>
		<stop  offset="1" style="stop-color:#003147"/>
	</linearGradient>
	<path style="fill-rule:evenodd;clip-rule:evenodd;fill:url(#SVGID_00000143581578621548054070000012774170719355646134_);" d="
		M278.7,65.7c0,0-32.6-16.3-33.8-27.8c0-0.1,0-0.2,0-0.2c0,0,0,0.1,0,0.1c0,0,0-0.1,0-0.1c0,0.1,0,0.1,0,0.2
		c-1.1,11.5-33.8,27.8-33.8,27.8s-4,17.7,11.1,32.2l0.4-0.2c-8.2-8.8-10.4-18.6-4-25.2c0,0,26-15.4,26.2-15.5l26.2,15.5
		c6.4,6.7,4.2,16.4-4,25.2l0.4,0.2C282.7,83.4,278.7,65.7,278.7,65.7z"/>
	
		<linearGradient id="SVGID_00000003103505148539634450000008896845991404835473_" gradientUnits="userSpaceOnUse" x1="244.8797" y1="109.1335" x2="244.8797" y2="9.4258">
		<stop  offset="0.287" style="stop-color:#076286"/>
		<stop  offset="1" style="stop-color:#003147"/>
	</linearGradient>
	<path style="fill-rule:evenodd;clip-rule:evenodd;fill:url(#SVGID_00000003103505148539634450000008896845991404835473_);" d="
		M267.2,82.2c0,0-21.6-10.8-22.4-18.4c0,0,0-0.1,0-0.1c0,0,0,0,0,0.1c0,0,0,0,0-0.1c0,0,0,0.1,0,0.1c-0.8,7.6-22.4,18.4-22.4,18.4
		s-2.6,11.7,7.4,21.3l0.3-0.1c-5.4-5.8-6.9-12.3-2.6-16.7c0,0,17.2-10.2,17.4-10.3l17.4,10.3c4.3,4.4,2.8,10.9-2.6,16.7l0.3,0.1
		C269.9,93.9,267.2,82.2,267.2,82.2z"/>
</g>
</svg>
